<?xml version="1.0" encoding="UTF-8"?>
<svg id="Layer_2" data-name="Layer 2" xmlns="http://www.w3.org/2000/svg" viewBox="0 0 725 492.31">
  <defs>
    <style>
      .cls-1 {
        fill: #c96387;
      }

      .cls-2 {
        fill: #0f152f;
      }
    </style>
  </defs>
  <g id="Layer_1-2" data-name="Layer 1">
    <g>
      <g>
        <path class="cls-2" d="M280.84,436.55c-1.29,1.36-2.63,2.68-3.99,3.99-63.33,60.72-166.01,60.71-229.35,0-63.32-60.71-63.33-159.14,0-219.86,1.36-1.31,2.74-2.59,4.16-3.83-59.33,60.95-57.99,156.49,3.97,215.89,61.97,59.41,161.63,60.7,225.21,3.82Z"/>
        <ellipse class="cls-2" cx="156.62" cy="243.76" rx="13.91" ry="13.34"/>
        <ellipse class="cls-2" cx="252.75" cy="335.92" rx="13.91" ry="13.34"/>
      </g>
      <g>
        <path class="cls-1" d="M510.11,314.69c.29,1.81,.53,3.65,.73,5.48,9.6,85.37-54.81,162.03-143.87,171.23-89.04,9.2-169.01-52.53-178.61-137.91-.21-1.84-.38-3.67-.5-5.5,12.3,82.53,90.76,141.46,177.88,132.45,87.14-9.01,150.69-82.61,144.36-165.76Z"/>
        <ellipse class="cls-1" cx="275.58" cy="286.51" rx="13.91" ry="13.34"/>
        <ellipse class="cls-1" cx="410.74" cy="272.54" rx="13.91" ry="13.34"/>
      </g>
      <g>
        <path class="cls-2" d="M646.9,128.97c1.65,.93,3.27,1.92,4.88,2.94,74.89,47.11,95.75,143.49,46.61,215.28-49.13,71.78-149.66,91.8-224.55,44.69-1.61-1.01-3.2-2.05-4.75-3.12,74.31,43.3,171.62,22.62,219.69-47.61,48.08-70.25,29.14-164.05-41.88-212.17Z"/>
        <ellipse class="cls-2" cx="475.25" cy="284.75" rx="13.91" ry="13.34"/>
        <ellipse class="cls-2" cx="549.83" cy="175.79" rx="13.91" ry="13.34"/>
      </g>
      <g>
        <path class="cls-2" d="M384.06,65.07c1.39-1.26,2.83-2.49,4.29-3.69,67.84-56.07,170.24-48.79,228.72,16.24,58.48,65.02,50.91,163.19-16.93,219.26-1.46,1.21-2.94,2.39-4.44,3.52,63.86-56.59,69.88-151.96,12.66-215.59-57.23-63.63-156.51-71.97-224.3-19.75Z"/>
        <ellipse class="cls-2" cx="493.09" cy="266.12" rx="13.91" ry="13.34"/>
        <ellipse class="cls-2" cx="404.32" cy="167.41" rx="13.91" ry="13.34"/>
      </g>
      <g>
        <path class="cls-2" d="M68.28,293.59c-1.01-1.56-1.97-3.16-2.9-4.77-43.53-75.04-15.35-169.7,62.93-211.43,78.27-41.72,177.01-14.73,220.54,60.32,.94,1.61,1.85,3.24,2.7,4.88-44.87-71.42-141.07-96.39-217.65-55.57C57.3,127.85,28.67,219.38,68.28,293.59Z"/>
        <ellipse class="cls-2" cx="295.74" cy="231.97" rx="13.91" ry="13.34"/>
        <ellipse class="cls-2" cx="176.93" cy="295.3" rx="13.91" ry="13.34"/>
      </g>
      <g>
        <path class="cls-2" d="M200.45,107.52c.57-1.75,1.2-3.49,1.86-5.23C232.97,21.61,326.05-19.96,410.21,9.44c84.14,29.39,127.52,118.61,96.86,199.29-.66,1.73-1.35,3.46-2.08,5.15,26.93-79.27-16.38-165.33-98.71-194.09-82.35-28.76-173.25,10.42-205.82,87.72Z"/>
        <ellipse class="cls-2" cx="397.97" cy="231.97" rx="13.91" ry="13.34"/>
        <ellipse class="cls-2" cx="270.25" cy="187.36" rx="13.91" ry="13.34"/>
      </g>
    </g>
  </g>
</svg>