<?xml version="1.0" encoding="UTF-8"?>
<svg id="Layer_2" data-name="Layer 2" xmlns="http://www.w3.org/2000/svg" viewBox="0 0 185.1 421.88">
  <defs>
    <style>
      .cls-1 {
        stroke-width: 3.07px;
      }

      .cls-1, .cls-2, .cls-3, .cls-4, .cls-5, .cls-6, .cls-7, .cls-8, .cls-9, .cls-10, .cls-11, .cls-12, .cls-13, .cls-14, .cls-15, .cls-16, .cls-17, .cls-18, .cls-19, .cls-20, .cls-21, .cls-22, .cls-23, .cls-24, .cls-25, .cls-26, .cls-27 {
        stroke: #000;
        stroke-miterlimit: 10;
      }

      .cls-1, .cls-2, .cls-3, .cls-4, .cls-5, .cls-6, .cls-7, .cls-8, .cls-9, .cls-10, .cls-11, .cls-12, .cls-13, .cls-14, .cls-15, .cls-16, .cls-17, .cls-19, .cls-20, .cls-21, .cls-22, .cls-23, .cls-24, .cls-25, .cls-26, .cls-27 {
        fill: none;
      }

      .cls-2 {
        stroke-width: 3.89px;
      }

      .cls-3 {
        stroke-width: 1.62px;
      }

      .cls-4 {
        stroke-width: 1.62px;
      }

      .cls-5 {
        stroke-width: 2.24px;
      }

      .cls-6 {
        stroke-width: 4.51px;
      }

      .cls-7 {
        stroke-width: 1.83px;
      }

      .cls-8 {
        stroke-width: 1.83px;
      }

      .cls-9 {
        stroke-width: 1.42px;
      }

      .cls-10 {
        stroke-width: 3.69px;
      }

      .cls-11 {
        stroke-width: 2.66px;
      }

      .cls-12 {
        stroke-width: 1.01px;
      }

      .cls-13 {
        stroke-width: 1.01px;
      }

      .cls-14 {
        stroke-width: 5.13px;
      }

      .cls-15 {
        stroke-width: 2.04px;
      }

      .cls-16 {
        stroke-width: 4.1px;
      }

      .cls-17 {
        stroke-width: 2.86px;
      }

      .cls-28 {
        fill: #231f20;
        font-family: DINAlternate-Bold, 'DIN Alternate';
        font-size: 28.37px;
        font-weight: 700;
      }

      .cls-18 {
        fill: #fcee21;
        stroke-width: 1.71px;
      }

      .cls-19 {
        stroke-width: 1.21px;
      }

      .cls-20 {
        stroke-width: 3.27px;
      }

      .cls-21 {
        stroke-width: 3.27px;
      }

      .cls-22 {
        stroke-width: 4.31px;
      }

      .cls-23 {
        stroke-width: 3.48px;
      }

      .cls-24 {
        stroke-width: 4.72px;
      }

      .cls-25 {
        stroke-width: .8px;
      }

      .cls-26 {
        stroke-width: 2.45px;
      }

      .cls-27 {
        stroke-width: 4.92px;
      }
    </style>
  </defs>
  <g id="Layer_1-2" data-name="Layer 1">
    <g>
      <g>
        <path class="cls-14" d="M178.91,298.73c-17.32-54.97-86.38-97.74-86.38-131.42,0,36.49-69.3,76.79-86.38,131.42-17.06,54.55,29.23,120.58,86.38,120.58s103.56-66.07,86.38-120.58Z"/>
        <path class="cls-27" d="M175.29,293.73c-16.6-52.88-82.76-94.02-82.76-126.42,0,35.1-66.4,73.86-82.76,126.42-16.34,52.47,28.01,115.99,82.76,115.99s99.22-63.56,82.76-115.99Z"/>
        <path class="cls-24" d="M171.68,288.73c-15.87-50.78-79.15-90.3-79.15-121.42,0,33.71-63.5,70.94-79.15,121.42-15.63,50.39,26.78,111.4,79.15,111.4s94.89-61.04,79.15-111.4Z"/>
        <path class="cls-6" d="M168.07,283.73c-15.15-48.69-75.53-86.58-75.53-116.42,0,32.32-60.59,68.02-75.53,116.42-14.91,48.32,25.56,106.81,75.53,106.81s90.55-58.53,75.53-106.81Z"/>
        <path class="cls-22" d="M164.45,278.72c-14.42-46.6-71.92-82.86-71.92-111.41,0,30.93-57.69,65.09-71.92,111.41-14.2,46.24,24.34,102.22,71.92,102.22s86.22-56.01,71.92-102.22Z"/>
        <path class="cls-16" d="M160.84,273.72c-13.7-44.51-68.3-79.14-68.3-106.41,0,29.55-54.79,62.17-68.3,106.41-13.49,44.17,23.11,97.63,68.3,97.63s81.88-53.5,68.3-97.63Z"/>
        <path class="cls-2" d="M157.22,268.72c-12.97-42.42-64.69-75.42-64.69-101.41,0,28.16-51.89,59.25-64.69,101.41-12.77,42.09,21.89,93.04,64.69,93.04s77.55-50.98,64.69-93.04Z"/>
        <path class="cls-10" d="M153.61,263.72c-12.25-40.32-61.07-71.7-61.07-96.41,0,26.77-48.99,56.33-61.07,96.41-12.06,40.01,20.67,88.45,61.07,88.45s73.21-48.47,61.07-88.45Z"/>
        <path class="cls-23" d="M149.99,258.71c-11.52-38.23-57.46-67.98-57.46-91.4,0,25.38-46.09,53.4-57.46,91.4-11.34,37.94,19.44,83.86,57.46,83.86s68.88-45.95,57.46-83.86Z"/>
        <path class="cls-20" d="M146.38,253.71c-10.8-36.14-53.84-64.26-53.84-86.4,0,23.99-43.19,50.48-53.84,86.4-10.63,35.86,18.22,79.27,53.84,79.27s64.55-43.44,53.84-79.27Z"/>
        <path class="cls-1" d="M142.76,248.71c-10.07-34.05-50.22-60.54-50.22-81.4,0,22.6-40.29,47.56-50.22,81.4-9.92,33.78,16.99,74.68,50.22,74.68s60.21-40.92,50.22-74.68Z"/>
        <path class="cls-17" d="M139.15,243.71c-9.35-31.95-46.61-56.82-46.61-76.4,0,21.21-37.39,44.64-46.61,76.4-9.2,31.71,15.77,70.09,46.61,70.09s55.88-38.41,46.61-70.09Z"/>
        <path class="cls-11" d="M135.53,238.7c-8.62-29.86-42.99-53.1-42.99-71.39,0,19.82-34.49,41.71-42.99,71.39-8.49,29.63,14.55,65.5,42.99,65.5s51.54-35.89,42.99-65.5Z"/>
        <path class="cls-26" d="M131.92,233.7c-7.9-27.77-39.38-49.38-39.38-66.39,0,18.43-31.59,38.79-39.38,66.39-7.78,27.56,13.32,60.91,39.38,60.91s47.21-33.38,39.38-60.91Z"/>
        <path class="cls-5" d="M128.3,228.7c-7.17-25.68-35.76-45.66-35.76-61.39,0,17.04-28.69,35.87-35.76,61.39-7.06,25.48,12.1,56.32,35.76,56.32s42.87-30.86,35.76-56.32Z"/>
        <path class="cls-15" d="M124.69,223.7c-6.45-23.58-32.15-41.94-32.15-56.39,0,15.66-25.79,32.94-32.15,56.39-6.35,23.4,10.88,51.73,32.15,51.73s38.54-28.35,32.15-51.73Z"/>
        <path class="cls-7" d="M121.07,218.69c-5.72-21.49-28.53-38.22-28.53-51.38,0,14.27-22.89,30.02-28.53,51.38-5.63,21.33,9.65,47.14,28.53,47.14s34.2-25.83,28.53-47.14Z"/>
        <path class="cls-4" d="M117.46,213.69c-5-19.4-24.92-34.5-24.92-46.38,0,12.88-19.99,27.1-24.92,46.38-4.92,19.25,8.43,42.56,24.92,42.56s29.87-23.32,24.92-42.56Z"/>
        <path class="cls-9" d="M113.84,208.69c-4.27-17.31-21.3-30.78-21.3-41.38,0,11.49-17.09,24.18-21.3,41.38-4.21,17.17,7.21,37.97,21.3,37.97s25.54-20.8,21.3-37.97Z"/>
        <path class="cls-19" d="M110.23,203.69c-3.55-15.21-17.68-27.05-17.68-36.38,0,10.1-14.19,21.25-17.68,36.38-3.49,15.1,5.98,33.38,17.68,33.38s21.2-18.29,17.68-33.38Z"/>
        <path class="cls-13" d="M106.61,198.68c-2.82-13.12-14.07-23.33-14.07-31.37,0,8.71-11.29,18.33-14.07,31.37s4.76,28.79,14.07,28.79,16.87-15.77,14.07-28.79Z"/>
        <path class="cls-25" d="M103,193.68c-2.1-11.03-10.45-19.61-10.45-26.37,0,7.32-8.39,15.41-10.45,26.37-2.06,10.95,3.54,24.2,10.45,24.2s12.53-13.26,10.45-24.2Z"/>
      </g>
      <g>
        <path class="cls-21" d="M146.38,80.91c-10.8,36.14-53.84,64.26-53.84,86.4,0-23.99-43.19-50.48-53.84-86.4C28.07,45.05,56.92,1.64,92.54,1.64s64.55,43.44,53.84,79.27Z"/>
        <path class="cls-1" d="M142.76,85.91c-10.07,34.05-50.22,60.54-50.22,81.4,0-22.6-40.29-47.56-50.22-81.4C32.4,52.13,59.31,11.23,92.54,11.23s60.21,40.92,50.22,74.68Z"/>
        <path class="cls-17" d="M139.15,90.92c-9.35,31.95-46.61,56.82-46.61,76.4,0-21.21-37.39-44.64-46.61-76.4-9.2-31.71,15.77-70.09,46.61-70.09s55.88,38.41,46.61,70.09Z"/>
        <path class="cls-11" d="M135.53,95.92c-8.62,29.86-42.99,53.1-42.99,71.39,0-19.82-34.49-41.71-42.99-71.39-8.49-29.63,14.55-65.5,42.99-65.5s51.54,35.89,42.99,65.5Z"/>
        <path class="cls-26" d="M131.92,100.92c-7.9,27.77-39.38,49.38-39.38,66.39,0-18.43-31.59-38.79-39.38-66.39-7.78-27.56,13.32-60.91,39.38-60.91s47.21,33.38,39.38,60.91Z"/>
        <path class="cls-5" d="M128.3,105.92c-7.17,25.68-35.76,45.66-35.76,61.39,0-17.04-28.69-35.87-35.76-61.39-7.06-25.48,12.1-56.32,35.76-56.32s42.87,30.86,35.76,56.32Z"/>
        <path class="cls-15" d="M124.69,110.92c-6.45,23.58-32.15,41.94-32.15,56.39,0-15.66-25.79-32.94-32.15-56.39-6.35-23.4,10.88-51.73,32.15-51.73s38.54,28.35,32.15,51.73Z"/>
        <path class="cls-8" d="M121.07,115.93c-5.72,21.49-28.53,38.22-28.53,51.38,0-14.27-22.89-30.02-28.53-51.38-5.63-21.33,9.65-47.14,28.53-47.14s34.2,25.83,28.53,47.14Z"/>
        <path class="cls-3" d="M117.46,120.93c-5,19.4-24.92,34.5-24.92,46.38,0-12.88-19.99-27.1-24.92-46.38-4.92-19.25,8.43-42.56,24.92-42.56s29.87,23.32,24.92,42.56Z"/>
        <path class="cls-9" d="M113.84,125.93c-4.27,17.31-21.3,30.78-21.3,41.38,0-11.49-17.09-24.18-21.3-41.38-4.21-17.17,7.21-37.97,21.3-37.97s25.54,20.8,21.3,37.97Z"/>
        <path class="cls-19" d="M110.23,130.93c-3.55,15.21-17.68,27.05-17.68,36.38,0-10.1-14.19-21.25-17.68-36.38-3.49-15.1,5.98-33.38,17.68-33.38s21.2,18.29,17.68,33.38Z"/>
        <path class="cls-12" d="M106.61,135.94c-2.82,13.12-14.07,23.33-14.07,31.37,0-8.71-11.29-18.33-14.07-31.37-2.78-13.02,4.76-28.79,14.07-28.79s16.87,15.77,14.07,28.79Z"/>
        <path class="cls-25" d="M103,140.94c-2.1,11.03-10.45,19.61-10.45,26.37,0-7.32-8.39-15.41-10.45-26.37-2.06-10.95,3.54-24.2,10.45-24.2s12.53,13.26,10.45,24.2Z"/>
      </g>
      <circle class="cls-18" cx="92.55" cy="167.31" r="35.82"/>
      <text class="cls-28" transform="translate(75.13 177.29)"><tspan x="0" y="0">0,5</tspan></text>
    </g>
  </g>
</svg>